<svg width="308" height="200" viewBox="0 0 308 200" fill="none" xmlns="http://www.w3.org/2000/svg">
<rect width="308" height="200" rx="20" fill="white" fill-opacity="0.5"/>
<rect x="127" y="9" width="54" height="28" rx="10" fill="#169FED"/>
<path d="M36.4062 26.8789H37.165C38.3955 26.8789 39.2477 26.8265 39.7217 26.7217C40.1956 26.6123 40.5898 26.4277 40.9043 26.168C41.3145 25.8262 41.6266 25.3864 41.8408 24.8486C42.055 24.3063 42.1621 23.6865 42.1621 22.9893C42.1621 22.2874 42.055 21.6722 41.8408 21.1436C41.6312 20.6104 41.319 20.1706 40.9043 19.8242C40.5898 19.5599 40.1888 19.373 39.7012 19.2637C39.2181 19.1497 38.3727 19.0928 37.165 19.0928H36.4062V26.8789ZM35.2031 28V17.9922H37.124C38.5459 17.9922 39.5462 18.0651 40.125 18.2109C40.7083 18.3522 41.2188 18.5915 41.6562 18.9287C42.2305 19.3708 42.6657 19.9359 42.9619 20.624C43.2581 21.3122 43.4062 22.1051 43.4062 23.0029C43.4062 23.8962 43.2581 24.6868 42.9619 25.375C42.6702 26.0586 42.235 26.6214 41.6562 27.0635C41.2188 27.4007 40.7197 27.6423 40.1592 27.7881C39.6032 27.9294 38.735 28 37.5547 28H37.124H35.2031ZM50.0371 24.9307C50.0371 24.2243 49.8434 23.6569 49.4561 23.2285C49.0732 22.7956 48.5719 22.5791 47.9521 22.5791C47.3096 22.5791 46.8083 22.7773 46.4482 23.1738C46.0882 23.5703 45.9082 24.124 45.9082 24.835C45.9082 25.5915 46.0882 26.1748 46.4482 26.585C46.8128 26.9951 47.3278 27.2002 47.9932 27.2002C48.6312 27.2002 49.1302 27.002 49.4902 26.6055C49.8548 26.2044 50.0371 25.6462 50.0371 24.9307ZM51.0762 21.7451V28H50.0371V26.8652C49.7865 27.321 49.4652 27.6696 49.0732 27.9111C48.6859 28.1481 48.2507 28.2666 47.7676 28.2666C46.8698 28.2666 46.1452 27.959 45.5938 27.3438C45.0469 26.724 44.7734 25.9059 44.7734 24.8896C44.7734 23.8597 45.04 23.0417 45.5732 22.4355C46.1064 21.8249 46.8197 21.5195 47.7129 21.5195C48.237 21.5195 48.6904 21.638 49.0732 21.875C49.4606 22.1074 49.7728 22.4561 50.0098 22.9209V21.7451H51.0762ZM53.0244 18.7305C53.0244 18.5163 53.0996 18.334 53.25 18.1836C53.4049 18.0286 53.5918 17.9512 53.8105 17.9512C54.0247 17.9512 54.207 18.0286 54.3574 18.1836C54.5124 18.3385 54.5898 18.5254 54.5898 18.7441C54.5898 18.9583 54.5146 19.1406 54.3643 19.291C54.2139 19.4414 54.0293 19.5166 53.8105 19.5166C53.5918 19.5166 53.4049 19.4414 53.25 19.291C53.0996 19.1406 53.0244 18.9538 53.0244 18.7305ZM53.2773 28V21.7451H54.3574V28H53.2773ZM56.668 28V17.4043H57.7617V28H56.668ZM59.751 31.0488L61.4463 27.3848L58.9922 21.7451H60.2295L62.0479 26.2363L63.9756 21.7451H65.1514L60.9541 31.0488H59.751Z" fill="black"/>
<path d="M136.904 17.9922H138.189L140.726 25.3545L143.371 17.5957L146.044 25.3545L148.594 17.9922H149.879L146.003 28.3896L143.385 20.6514L140.78 28.3896L136.904 17.9922ZM154.548 24.165C154.511 23.6136 154.327 23.1898 153.994 22.8936C153.666 22.5928 153.215 22.4424 152.641 22.4424C152.121 22.4424 151.688 22.5996 151.342 22.9141C150.995 23.224 150.795 23.641 150.74 24.165H154.548ZM155.696 25.0332H150.74V25.1289C150.74 25.7988 150.932 26.3411 151.314 26.7559C151.697 27.166 152.196 27.3711 152.812 27.3711C153.231 27.3711 153.609 27.2594 153.946 27.0361C154.284 26.8083 154.582 26.4665 154.842 26.0107L155.655 26.5576C155.341 27.1227 154.94 27.5488 154.452 27.8359C153.965 28.123 153.399 28.2666 152.757 28.2666C151.804 28.2666 151.034 27.9521 150.446 27.3232C149.858 26.6943 149.564 25.8695 149.564 24.8486C149.564 23.8688 149.856 23.0667 150.439 22.4424C151.023 21.818 151.772 21.5059 152.688 21.5059C153.614 21.5059 154.345 21.8021 154.883 22.3945C155.425 22.987 155.696 23.7959 155.696 24.8213V25.0332ZM161.753 24.165C161.716 23.6136 161.532 23.1898 161.199 22.8936C160.871 22.5928 160.42 22.4424 159.846 22.4424C159.326 22.4424 158.893 22.5996 158.547 22.9141C158.201 23.224 158 23.641 157.945 24.165H161.753ZM162.901 25.0332H157.945V25.1289C157.945 25.7988 158.137 26.3411 158.52 26.7559C158.902 27.166 159.401 27.3711 160.017 27.3711C160.436 27.3711 160.814 27.2594 161.151 27.0361C161.489 26.8083 161.787 26.4665 162.047 26.0107L162.86 26.5576C162.546 27.1227 162.145 27.5488 161.657 27.8359C161.17 28.123 160.604 28.2666 159.962 28.2666C159.009 28.2666 158.239 27.9521 157.651 27.3232C157.063 26.6943 156.77 25.8695 156.77 24.8486C156.77 23.8688 157.061 23.0667 157.645 22.4424C158.228 21.818 158.978 21.5059 159.894 21.5059C160.819 21.5059 161.55 21.8021 162.088 22.3945C162.63 22.987 162.901 23.7959 162.901 24.8213V25.0332ZM164.535 28V17.4043H165.608V24.582L168.623 21.7451H170.052L166.928 24.6094L170.332 28H168.835L165.608 24.6982V28H164.535Z" fill="black"/>
<path d="M239.865 28.3896L236.755 21.1982L235.497 28H234.335L236.365 17.5957L239.865 25.874L243.365 17.5957L245.396 28H244.233L242.962 21.1982L239.865 28.3896ZM247.453 24.8896C247.453 25.5505 247.674 26.111 248.116 26.5713C248.558 27.027 249.094 27.2549 249.723 27.2549C250.347 27.2549 250.878 27.027 251.315 26.5713C251.753 26.111 251.972 25.5505 251.972 24.8896C251.972 24.2288 251.753 23.6706 251.315 23.2148C250.878 22.7546 250.347 22.5244 249.723 22.5244C249.089 22.5244 248.551 22.7546 248.109 23.2148C247.672 23.6706 247.453 24.2288 247.453 24.8896ZM246.318 24.8896C246.318 24.4294 246.403 23.9964 246.571 23.5908C246.74 23.1807 246.986 22.8161 247.31 22.4971C247.633 22.1781 248 21.9365 248.41 21.7725C248.82 21.6038 249.258 21.5195 249.723 21.5195C250.178 21.5195 250.609 21.6038 251.015 21.7725C251.425 21.9411 251.796 22.1872 252.129 22.5107C252.452 22.8252 252.699 23.1875 252.867 23.5977C253.036 24.0033 253.12 24.4339 253.12 24.8896C253.12 25.3454 253.036 25.776 252.867 26.1816C252.699 26.5827 252.452 26.9404 252.129 27.2549C251.796 27.583 251.423 27.8337 251.008 28.0068C250.598 28.18 250.169 28.2666 249.723 28.2666C249.262 28.2666 248.825 28.18 248.41 28.0068C248 27.8382 247.633 27.5944 247.31 27.2754C246.986 26.9473 246.74 26.5827 246.571 26.1816C246.403 25.7806 246.318 25.3499 246.318 24.8896ZM254.795 28V21.7451H255.841V22.709C256.11 22.3079 256.433 22.0094 256.812 21.8135C257.19 21.6175 257.627 21.5195 258.124 21.5195C258.862 21.5195 259.439 21.7155 259.854 22.1074C260.268 22.4993 260.476 23.0439 260.476 23.7412V28H259.382V24.3154C259.382 23.682 259.247 23.2126 258.979 22.9072C258.714 22.5973 258.304 22.4424 257.748 22.4424C257.429 22.4424 257.137 22.5016 256.873 22.6201C256.613 22.734 256.397 22.8981 256.224 23.1123C256.091 23.2764 255.996 23.4632 255.937 23.6729C255.882 23.8825 255.854 24.2471 255.854 24.7666V28H254.795ZM262.766 22.627H261.617V21.7451H262.766V19.2227H263.859V21.7451H265.008V22.627H263.859V28H262.766V22.627ZM266.225 28V17.4043H267.271V22.709C267.539 22.3079 267.863 22.0094 268.241 21.8135C268.619 21.6175 269.057 21.5195 269.554 21.5195C270.292 21.5195 270.868 21.7155 271.283 22.1074C271.698 22.4993 271.905 23.0439 271.905 23.7412V28H270.812V24.3154C270.812 23.682 270.677 23.2126 270.408 22.9072C270.144 22.5973 269.734 22.4424 269.178 22.4424C268.859 22.4424 268.567 22.5016 268.303 22.6201C268.043 22.734 267.826 22.8981 267.653 23.1123C267.521 23.2764 267.425 23.4632 267.366 23.6729C267.312 23.8825 267.284 24.2471 267.284 24.7666V28H266.225Z" fill="black"/>
<line x1="33.5" y1="163" x2="33.5" y2="57" stroke="black"/>
<line x1="113.888" y1="163" x2="113.888" y2="57" stroke="black"/>
<line x1="73.1117" y1="163" x2="73.1116" y2="57" stroke="black"/>
<line x1="153.5" y1="163" x2="153.5" y2="57" stroke="black"/>
<line x1="273.5" y1="163" x2="273.5" y2="57" stroke="black"/>
<line x1="193.112" y1="163" x2="193.112" y2="57" stroke="black"/>
<line x1="233.888" y1="163" x2="233.888" y2="57" stroke="black"/>
<path d="M34 115.212C42.7398 99.983 62.6397 73.5856 72.3207 89.8301C84.7581 95.245 110.238 104.45 112.658 97.9524C115.684 89.8301 155.013 104.044 154.004 89.8301C165.769 85.4306 190.308 79.2712 194.342 89.8301C199.384 103.029 233.671 107.09 235.688 107.09C237.705 107.09 271.992 145.671 273 130.441" stroke="#22E9D1"/>
<circle cx="33.5" cy="114.5" r="2.5" fill="#22E9D1"/>
<circle cx="272.5" cy="133.5" r="4" fill="white" stroke="#169FED" stroke-width="3"/>
<circle cx="233.5" cy="106.5" r="2.5" fill="#22E9D1"/>
<circle cx="193.5" cy="88.5" r="2.5" fill="#22E9D1"/>
<circle cx="153.5" cy="93.5" r="2.5" fill="#22E9D1"/>
<circle cx="113.5" cy="97.5" r="2.5" fill="#22E9D1"/>
<circle cx="73.5" cy="90.5" r="2.5" fill="#22E9D1"/>
<path d="M32.0273 176.334L29.3613 170.17L28.2832 176H27.2871L29.0273 167.082L32.0273 174.178L35.0273 167.082L36.7676 176H35.7715L34.6816 170.17L32.0273 176.334ZM38.5312 173.334C38.5312 173.9 38.7207 174.381 39.0996 174.775C39.4785 175.166 39.9375 175.361 40.4766 175.361C41.0117 175.361 41.4668 175.166 41.8418 174.775C42.2168 174.381 42.4043 173.9 42.4043 173.334C42.4043 172.768 42.2168 172.289 41.8418 171.898C41.4668 171.504 41.0117 171.307 40.4766 171.307C39.9336 171.307 39.4727 171.504 39.0938 171.898C38.7188 172.289 38.5312 172.768 38.5312 173.334ZM37.5586 173.334C37.5586 172.939 37.6309 172.568 37.7754 172.221C37.9199 171.869 38.1309 171.557 38.4082 171.283C38.6855 171.01 39 170.803 39.3516 170.662C39.7031 170.518 40.0781 170.445 40.4766 170.445C40.8672 170.445 41.2363 170.518 41.584 170.662C41.9355 170.807 42.2539 171.018 42.5391 171.295C42.8164 171.564 43.0273 171.875 43.1719 172.227C43.3164 172.574 43.3887 172.943 43.3887 173.334C43.3887 173.725 43.3164 174.094 43.1719 174.441C43.0273 174.785 42.8164 175.092 42.5391 175.361C42.2539 175.643 41.9336 175.857 41.5781 176.006C41.2266 176.154 40.8594 176.229 40.4766 176.229C40.082 176.229 39.707 176.154 39.3516 176.006C39 175.861 38.6855 175.652 38.4082 175.379C38.1309 175.098 37.9199 174.785 37.7754 174.441C37.6309 174.098 37.5586 173.729 37.5586 173.334ZM67.6523 176V168.395H65.2266V167.422H71.0977V168.395H68.6836V176H67.6523ZM71.7949 170.639V173.275C71.7949 174.045 71.9082 174.584 72.1348 174.893C72.3652 175.197 72.752 175.35 73.2949 175.35C73.8379 175.35 74.2207 175.199 74.4434 174.898C74.6699 174.594 74.7832 174.053 74.7832 173.275V170.639H75.7207V173.768C75.7207 174.576 75.5137 175.189 75.0996 175.607C74.6855 176.021 74.0762 176.229 73.2715 176.229C72.4746 176.229 71.8691 176.02 71.4551 175.602C71.041 175.184 70.834 174.572 70.834 173.768V170.639H71.7949ZM108.328 167.422H109.43L111.604 173.732L113.871 167.082L116.162 173.732L118.348 167.422H119.449L116.127 176.334L113.883 169.701L111.65 176.334L108.328 167.422ZM123.451 172.713C123.42 172.24 123.262 171.877 122.977 171.623C122.695 171.365 122.309 171.236 121.816 171.236C121.371 171.236 121 171.371 120.703 171.641C120.406 171.906 120.234 172.264 120.188 172.713H123.451ZM124.436 173.457H120.188V173.539C120.188 174.113 120.352 174.578 120.68 174.934C121.008 175.285 121.436 175.461 121.963 175.461C122.322 175.461 122.646 175.365 122.936 175.174C123.225 174.979 123.48 174.686 123.703 174.295L124.4 174.764C124.131 175.248 123.787 175.613 123.369 175.859C122.951 176.105 122.467 176.229 121.916 176.229C121.1 176.229 120.439 175.959 119.936 175.42C119.432 174.881 119.18 174.174 119.18 173.299C119.18 172.459 119.43 171.771 119.93 171.236C120.43 170.701 121.072 170.434 121.857 170.434C122.65 170.434 123.277 170.688 123.738 171.195C124.203 171.703 124.436 172.396 124.436 173.275V173.457ZM152.191 176V168.395H149.766V167.422H155.637V168.395H153.223V176H152.191ZM156.68 176V166.918H157.576V171.465C157.807 171.121 158.084 170.865 158.408 170.697C158.732 170.529 159.107 170.445 159.533 170.445C160.166 170.445 160.66 170.613 161.016 170.949C161.371 171.285 161.549 171.752 161.549 172.35V176H160.611V172.842C160.611 172.299 160.496 171.896 160.266 171.635C160.039 171.369 159.688 171.236 159.211 171.236C158.938 171.236 158.688 171.287 158.461 171.389C158.238 171.486 158.053 171.627 157.904 171.811C157.791 171.951 157.709 172.111 157.658 172.291C157.611 172.471 157.588 172.783 157.588 173.229V176H156.68ZM188.238 176V167.422H192.762V168.354H189.258V170.814H192.762V171.764H189.258V176H188.238ZM194.027 176V170.639H194.842V171.752C195.088 171.287 195.35 170.955 195.627 170.756C195.904 170.557 196.242 170.457 196.641 170.457C196.75 170.457 196.855 170.467 196.957 170.486C197.059 170.502 197.16 170.527 197.262 170.562L196.957 171.389C196.852 171.354 196.752 171.328 196.658 171.312C196.564 171.293 196.475 171.283 196.389 171.283C195.904 171.283 195.541 171.459 195.299 171.811C195.057 172.158 194.936 172.684 194.936 173.387V176H194.027ZM233.303 171.236C233.861 171.475 234.281 171.791 234.562 172.186C234.848 172.58 234.99 173.047 234.99 173.586C234.99 174.375 234.738 175.012 234.234 175.496C233.734 175.977 233.07 176.217 232.242 176.217C231.566 176.217 231 176.045 230.543 175.701C230.086 175.354 229.777 174.861 229.617 174.225L230.543 173.768C230.668 174.287 230.873 174.682 231.158 174.951C231.447 175.217 231.809 175.35 232.242 175.35C232.754 175.35 233.168 175.203 233.484 174.91C233.801 174.613 233.959 174.229 233.959 173.756C233.959 173.373 233.848 173.041 233.625 172.76C233.406 172.475 233.074 172.234 232.629 172.039L231.586 171.594C231.016 171.355 230.59 171.049 230.309 170.674C230.031 170.299 229.893 169.85 229.893 169.326C229.893 168.717 230.119 168.213 230.572 167.814C231.025 167.416 231.604 167.217 232.307 167.217C232.822 167.217 233.268 167.326 233.643 167.545C234.021 167.764 234.316 168.086 234.527 168.512L233.684 169.051C233.492 168.719 233.277 168.473 233.039 168.312C232.801 168.148 232.531 168.066 232.23 168.066C231.848 168.066 231.533 168.184 231.287 168.418C231.045 168.652 230.924 168.951 230.924 169.314C230.924 169.619 231.018 169.883 231.205 170.105C231.393 170.328 231.684 170.525 232.078 170.697L233.303 171.236ZM240.363 173.369C240.363 172.764 240.197 172.277 239.865 171.91C239.537 171.539 239.107 171.354 238.576 171.354C238.025 171.354 237.596 171.523 237.287 171.863C236.979 172.203 236.824 172.678 236.824 173.287C236.824 173.936 236.979 174.436 237.287 174.787C237.6 175.139 238.041 175.314 238.611 175.314C239.158 175.314 239.586 175.145 239.895 174.805C240.207 174.461 240.363 173.982 240.363 173.369ZM241.254 170.639V176H240.363V175.027C240.148 175.418 239.873 175.717 239.537 175.924C239.205 176.127 238.832 176.229 238.418 176.229C237.648 176.229 237.027 175.965 236.555 175.438C236.086 174.906 235.852 174.205 235.852 173.334C235.852 172.451 236.08 171.75 236.537 171.23C236.994 170.707 237.605 170.445 238.371 170.445C238.82 170.445 239.209 170.547 239.537 170.75C239.869 170.949 240.137 171.248 240.34 171.646V170.639H241.254ZM271.084 171.236C271.643 171.475 272.062 171.791 272.344 172.186C272.629 172.58 272.771 173.047 272.771 173.586C272.771 174.375 272.52 175.012 272.016 175.496C271.516 175.977 270.852 176.217 270.023 176.217C269.348 176.217 268.781 176.045 268.324 175.701C267.867 175.354 267.559 174.861 267.398 174.225L268.324 173.768C268.449 174.287 268.654 174.682 268.939 174.951C269.229 175.217 269.59 175.35 270.023 175.35C270.535 175.35 270.949 175.203 271.266 174.91C271.582 174.613 271.74 174.229 271.74 173.756C271.74 173.373 271.629 173.041 271.406 172.76C271.188 172.475 270.855 172.234 270.41 172.039L269.367 171.594C268.797 171.355 268.371 171.049 268.09 170.674C267.812 170.299 267.674 169.85 267.674 169.326C267.674 168.717 267.9 168.213 268.354 167.814C268.807 167.416 269.385 167.217 270.088 167.217C270.604 167.217 271.049 167.326 271.424 167.545C271.803 167.764 272.098 168.086 272.309 168.512L271.465 169.051C271.273 168.719 271.059 168.473 270.82 168.312C270.582 168.148 270.312 168.066 270.012 168.066C269.629 168.066 269.314 168.184 269.068 168.418C268.826 168.652 268.705 168.951 268.705 169.314C268.705 169.619 268.799 169.883 268.986 170.105C269.174 170.328 269.465 170.525 269.859 170.697L271.084 171.236ZM274.904 170.639V173.275C274.904 174.045 275.018 174.584 275.244 174.893C275.475 175.197 275.861 175.35 276.404 175.35C276.947 175.35 277.33 175.199 277.553 174.898C277.779 174.594 277.893 174.053 277.893 173.275V170.639H278.83V173.768C278.83 174.576 278.623 175.189 278.209 175.607C277.795 176.021 277.186 176.229 276.381 176.229C275.584 176.229 274.979 176.02 274.564 175.602C274.15 175.184 273.943 174.572 273.943 173.768V170.639H274.904Z" fill="black"/>
</svg>
