<svg width="57" height="57" viewBox="0 0 57 57" fill="none" xmlns="http://www.w3.org/2000/svg">
<g clip-path="url(#clip0_7_2)">
<path d="M41.5665 2.71423H35.4436V6.50162H39.6728V14.9601C39.6728 21.3299 34.4904 26.5116 28.1213 26.5116H27.2376C20.8678 26.5116 15.6861 21.3292 15.6861 14.9601V6.50162H19.9153V2.71423H13.7924C12.7464 2.71423 11.8987 3.562 11.8987 4.60793V14.9601C11.8987 23.4179 18.7798 30.299 27.2376 30.299H28.1213C36.5791 30.299 43.4602 23.4179 43.4602 14.9601V4.60793C43.4602 3.562 42.6124 2.71423 41.5665 2.71423Z" fill="#169FED"/>
<path d="M35.2542 0C34.2082 0 33.3605 0.847764 33.3605 1.89369V7.19603C33.3605 8.24196 34.2082 9.08972 35.2542 9.08972C36.3001 9.08972 37.1479 8.24196 37.1479 7.19603V1.89369C37.1479 0.847764 36.3001 0 35.2542 0Z" fill="#169FED"/>
<path d="M20.294 0C19.248 0 18.4003 0.847764 18.4003 1.89369V7.19603C18.4003 8.24196 19.248 9.08972 20.294 9.08972C21.3399 9.08972 22.1876 8.24196 22.1876 7.19603V1.89369C22.1876 0.847764 21.3399 0 20.294 0Z" fill="#169FED"/>
<path d="M29.6994 39.074V28.3431H25.912V39.074H19.789C14.8465 39.074 10.8256 43.0949 10.8256 48.0368C10.8256 52.9793 14.8749 57.0003 19.8522 57.0003H20.7359C25.6784 57.0003 29.6994 52.9793 29.6994 48.0368V42.8614H36.1379V39.074H29.6994ZM25.912 48.0361C25.912 50.8899 23.5897 53.2122 20.7359 53.2122H19.8522C16.9144 53.2122 14.6129 50.9391 14.6129 48.0361C14.6129 45.1823 16.9352 42.8607 19.789 42.8607H25.912V48.0361Z" fill="#169FED"/>
<path d="M40.2409 35.034C36.9699 35.034 34.308 37.6953 34.308 40.9676C34.308 44.2386 36.9693 46.9005 40.2409 46.9005C43.5127 46.9005 46.1745 44.2386 46.1745 40.9676C46.1745 37.6959 43.5132 35.034 40.2409 35.034ZM40.2409 43.1125C39.058 43.1125 38.0954 42.1499 38.0954 40.967C38.0954 39.7835 39.0581 38.8208 40.2409 38.8208C41.4245 38.8208 42.3871 39.7835 42.3871 40.967C42.3871 42.1499 41.4245 43.1125 40.2409 43.1125Z" fill="#169FED"/>
</g>
<defs>
<clipPath id="clip0_7_2">
<rect width="57" height="57" fill="white"/>
</clipPath>
</defs>
</svg>
